# xmcd CD database file
#
# Track frame offsets:
#	150
#	18925
#	39616
#	51645
#	65028
#	86163
#	102480
#	118731
#	137236
#	148826
#	166232
#
# Disc length: 2390 seconds
#
# Revision: 0
# Processed by: cddbd v1.5.2PL0 Copyright (c) Steve Scherf et al.
# Submitted via: CDex 1.51
#
DISCID=a909540b
DTITLE=Gerald And René - Going Down Memory Lane
DYEAR=2006
DGENRE=Country
TTITLE0=Pennies Op Die Spoor - Gerald And Renè
TTITLE1=Mississippi - Gerald And Renè
TTITLE2=All The Gold In California - Gerald And Renè
TTITLE3=Good Old Boy - Gerald And Renè
TTITLE4=Be Back Home Again - Gerald And Renè
TTITLE5=Like We Never Had A Broken Heart - Gerald And Renè
TTITLE6=Liefling - Gerald And Renè
TTITLE7=Zoeloe Zomer - Gerald And Renè
TTITLE8=Donna - Gerald And Renè
TTITLE9=Blue Roses - Gerald And Renè
TTITLE10=Somewhere Between - Gerald And Renè
EXTD=YEAR: 2006
EXTT0=
EXTT1=
EXTT2=
EXTT3=
EXTT4=
EXTT5=
EXTT6=
EXTT7=
EXTT8=
EXTT9=
EXTT10=
PLAYORDER=
